HIERARCHY
ROOT Hips
{
  OFFSET 265.287 66.7526 -254.649
  CHANNELS 6 Xposition Yposition Zposition Zrotation Xrotation Yrotation
  JOINT LeftUpLeg
  {
    OFFSET 8.64259 1.95398 -2.38835
    CHANNELS 3 Zrotation Xrotation Yrotation
    JOINT LeftLeg
    {
      OFFSET 43.7702 0 0
      CHANNELS 3 Zrotation Xrotation Yrotation
      JOINT LeftFoot
      {
        OFFSET 40.6238 0 0
        CHANNELS 3 Zrotation Xrotation Yrotation
        JOINT LeftToeBase
        {
          OFFSET 12.7242 0 0
          CHANNELS 3 Zrotation Xrotation Yrotation
          End Site
          {
            OFFSET 0 0 0
          }
        }
      }
    }
  }
  JOINT RightUpLeg
  {
    OFFSET -8.2249 1.95398 -2.59336
    CHANNELS 3 Zrotation Xrotation Yrotation
    JOINT RightLeg
    {
      OFFSET 43.5653 0 0
      CHANNELS 3 Zrotation Xrotation Yrotation
      JOINT RightFoot
      {
        OFFSET 40.6238 0 0
        CHANNELS 3 Zrotation Xrotation Yrotation
        JOINT RightToeBase
        {
          OFFSET 12.7242 0 0
          CHANNELS 3 Zrotation Xrotation Yrotation
          End Site
          {
            OFFSET 0 0 0
          }
        }
      }
    }
  }
  JOINT Spine
  {
    OFFSET 0.165834 0.87714 6.61349
    CHANNELS 3 Zrotation Xrotation Yrotation
    JOINT Spine1
    {
      OFFSET 7.38963 1.71661e-005 0
      CHANNELS 3 Zrotation Xrotation Yrotation
      JOINT Spine2
      {
        OFFSET 11.9445 1.14441e-005 0
        CHANNELS 3 Zrotation Xrotation Yrotation
        JOINT Spine3
        {
          OFFSET 14.7254 4.19617e-005 0
          CHANNELS 3 Zrotation Xrotation Yrotation
          JOINT Spine4
          {
            OFFSET 10.9679 0 0
            CHANNELS 3 Zrotation Xrotation Yrotation
            JOINT RightShoulder
            {
              OFFSET 2.46616 -1.6653 3.69651
              CHANNELS 3 Zrotation Xrotation Yrotation
              JOINT RightArm
              {
                OFFSET 13.0012 0 0
                CHANNELS 3 Zrotation Xrotation Yrotation
                JOINT RightForeArm
                {
                  OFFSET 28.7848 1.52588e-005 0
                  CHANNELS 3 Zrotation Xrotation Yrotation
                  JOINT RightHand
                  {
                    OFFSET 26.5688 1.52588e-005 0
                    CHANNELS 3 Zrotation Xrotation Yrotation
                    End Site
                    {
                      OFFSET 0 0 0
                    }
                  }
                }
              }
            }
            JOINT LeftShoulder
            {
              OFFSET 2.38034 -1.29275 -3.7523
              CHANNELS 3 Zrotation Xrotation Yrotation
              JOINT LeftArm
              {
                OFFSET 16.3182 6.10351e-005 0
                CHANNELS 3 Zrotation Xrotation Yrotation
                JOINT LeftForeArm
                {
                  OFFSET 27.0901 0 0
                  CHANNELS 3 Zrotation Xrotation Yrotation
                  JOINT LeftHand
                  {
                    OFFSET 24.5451 1.52588e-005 0
                    CHANNELS 3 Zrotation Xrotation Yrotation
                    End Site
                    {
                      OFFSET 0 0 0
                    }
                  }
                }
              }
            }
            JOINT Neck
            {
              OFFSET 5.0226 -0.0266342 0
              CHANNELS 3 Zrotation Xrotation Yrotation
              JOINT Head
              {
                OFFSET 6.69364 2.86102e-005 0
                CHANNELS 3 Zrotation Xrotation Yrotation
                End Site
                {
                  OFFSET 0 0 0
                }
              }
            }
          }
        }
      }
    }
  }
}
MOTION
Frames:	18
Frame Time:	0.0416667
-135.543 92.3356 123.44 97.4398 52.7553 89.3517 177.014 5.29159 93.8713 -59.7857 11.8206 6.51509 49.0443 -1.52772 3.82767 57.6743 -8.85239 0.380326 175.982 18.4912 91.9599 -31.1966 -4.89233 1.76098 61.7682 4.44366 12.9471 26.9179 0.411633 -1.05992 -0.348897 7.53611 -91.3633 11.7795 -1.33424 -2.57685 0.106805 -1.44633 -2.51568 -22.409 -0.498482 -2.85848 -2.39638 -0.498493 -2.85848 100.785 -48.8455 -84.3481 28.4164 -1.14487 0.124811 -1.02774 -14.9822 -13.2751 -12.38 -0.923812 3.59632 -83.0429 -49.4958 88.9313 -31.3355 11.6614 -13.8158 11.5411 24.2548 -20.3833 -2.22231 -0.0886282 -2.92052 7.28358 1.22071 2.04671 -10.9802 0.246977 8.14234 
-129.495 93.1902 118.369 98.6951 50.3006 85.7204 178.668 14.1277 89.4085 -61.8212 7.83609 3.77075 57.0471 2.27131 7.24383 51.6896 -6.94764 1.17478 176.625 13.1863 91.028 -33.058 -5.382 -0.131082 67.7009 2.2645 13.1862 27.212 0.333592 -0.831027 0.0351694 7.67187 -91.0339 11.5213 -0.413616 -2.01873 -0.151075 -0.502035 -1.99858 -22.6738 0.212087 -2.04971 -2.66111 0.212093 -2.0497 100.774 -48.2183 -84.383 26.9165 -2.24454 -3.67334 -1.48352 -12.5305 -18.2686 -16.2357 -1.15954 3.17288 -83.4137 -48.9217 88.3078 -31.7626 13.9474 -10.2472 11.3118 29.5285 -19.7861 -5.12911 -0.14481 -2.10255 6.34228 0.212644 1.09402 -9.44047 -0.306257 5.7808 
-123.861 94.1663 113.461 98.1309 50.1923 84.4856 -179.978 19.1434 86.8898 -45.834 8.26347 2.49835 60.1499 3.42551 7.54402 50.8251 -6.31975 4.89632 176.062 6.61762 89.4485 -29.2544 -5.40979 -0.494058 70.0194 1.11606 12.7479 28.8337 0.0318135 -0.358326 0.217308 7.50135 -90.7812 11.8695 0.0645179 -1.56572 0.197594 -0.0044553 -1.56705 -22.3307 0.532029 -1.47399 -2.31804 0.532049 -1.47399 101.822 -46.6085 -82.7203 26.3626 -4.2472 -6.47193 -1.74603 -10.0629 -22.8724 -15.9113 -0.873951 1.17091 -83.3043 -49.0499 88.4872 -32.1114 14.02 -4.65379 11.0771 29.728 -20.1285 -3.58994 -0.120401 -1.35154 4.59217 -0.741779 1.50373 -9.10303 -1.19036 3.85265 
-118.256 94.4382 108.433 96.8704 48.9296 84.5162 -179.377 16.5869 85.9828 -13.8337 9.84708 1.80085 52.1603 0.0859787 6.89329 45.4791 -4.92817 5.13467 175.826 0.438469 90.3419 -25.7259 -4.04246 -1.1892 71.9082 0.260555 14.8172 29.3645 -0.257503 1.56342 0.502759 7.27433 -90.5763 12.3282 0.725612 -1.23334 0.656842 0.670635 -1.26407 -21.8769 1.06272 -0.958272 -1.86421 1.06271 -0.958275 102.945 -44.8488 -80.8641 26.4131 -5.00341 -8.33478 -3.69081 -11.2921 -26.5537 -12.5187 -0.568414 0.0903671 -81.9178 -47.9822 90.5352 -34.4225 11.1846 -0.574428 11.339 29.5955 -19.0279 -2.85987 -0.104897 -1.12349 4.28546 -1.12676 1.82571 -9.89742 -1.60329 2.96056 
-112.363 93.8398 102.656 96.9458 46.5525 86.2117 -177.884 19.425 87.2802 -6.07466 12.6367 2.90255 56.4785 -0.843305 2.00721 44.9453 -4.77562 5.24581 175.824 -4.66047 90.5256 -25.3755 -4.54848 -1.33946 70.4107 0.417627 17.4256 36.0168 -1.15553 2.16971 0.917185 7.12027 -90.6788 12.6424 1.49797 -1.53196 0.971385 1.4291 -1.59638 -21.567 1.88909 -1.01091 -1.55437 1.8891 -1.0109 103.545 -43.6661 -79.8271 27.927 -3.97304 -8.51277 -4.6293 -11.5799 -27.6143 -11.843 -0.48596 -0.426711 -81.8172 -49.3402 90.7896 -33.699 6.96985 1.08045 10.6655 29.3321 -15.6102 -3.41717 -0.109628 -2.27529 2.56488 -1.0561 3.15305 -10.0311 -1.63198 1.32862 
-105.678 93.1207 95.3742 97.6367 45.9792 85.2239 -178.311 18.0409 86.3541 -10.4926 13.4652 2.6327 53.3395 -1.34616 6.62054 43.0906 -4.30061 5.115 174.806 -8.27748 88.612 -28.8313 -8.84151 -2.05241 62.0476 2.89528 19.8269 48.598 -2.46008 4.94428 0.940819 7.06109 -90.3916 12.7596 1.68127 -0.982752 1.08927 1.63636 -1.05581 -21.4538 1.89886 -0.431899 -1.44118 1.89885 -0.431899 103.9 -44.9514 -79.2771 28.8281 -3.62492 -7.21622 -3.70407 -11.3036 -24.9705 -12.3655 -0.533697 -0.172519 -80.5498 -48.1453 92.6664 -34.7758 4.42794 0.575951 10.3941 28.9024 -13.2747 -4.19208 -0.13899 -1.28566 3.49927 -1.02327 0.583838 -11.4441 -1.32024 2.99649 
-98.8621 92.5009 88.0237 99.1725 46.3514 83.0631 -178.05 19.19 84.9958 -25.4018 15.7457 2.44188 53.9708 -1.71786 11.9598 40.3381 -3.55732 -0.00794792 173.208 -6.25702 85.48 -38.2283 -11.6042 -1.98336 40.111 9.05997 24.3875 49.0214 -2.25222 11.7659 0.727924 7.08815 -90.001 12.7018 1.44545 -0.171338 1.03162 1.4365 -0.234817 -21.51 1.43008 0.271077 -1.49736 1.43009 0.27108 104.046 -45.6227 -79.0623 31.1813 -2.82023 -5.2254 -2.77376 -13.8218 -18.3866 -10.4623 -0.509915 0.53097 -80.7767 -47.2728 92.2641 -34.6282 4.79197 -0.379804 10.287 28.4902 -13.3204 -3.89188 -0.134924 -1.12774 4.79217 -0.500021 -1.54193 -12.3251 -0.465666 3.30678 
-92.7747 92.6237 81.8285 101.449 47.0647 80.2758 -177.165 14.844 84.0581 -31.9884 17.6243 1.93142 61.9666 2.07084 15.5338 36.5049 -2.32828 -1.59289 173.954 4.92794 84.3964 -58.5571 -15.8689 -2.52601 31.0904 12.3508 21.7345 32.6505 -0.989645 6.26915 0.313508 7.35102 -89.7244 12.1692 0.753701 0.466529 0.498413 0.773505 0.432896 -22.0372 0.578622 0.67147 -2.02453 0.57864 0.671474 103.636 -45.8281 -79.745 33.0441 -2.3896 -3.56162 -2.40461 -16.6942 -14.3443 -7.53012 -0.363072 0.446248 -81.3355 -47.6233 91.4141 -32.2639 6.96394 -5.70606 9.99112 29.3565 -13.5309 -2.58198 -0.0957557 -0.325497 4.97835 0.851459 -1.68851 -10.6295 0.886171 4.17709 
-86.8802 93.8644 75.5436 102.264 49.735 81.21 -176.974 7.88501 85.9213 -30.5207 20.1114 3.02904 65.7525 4.5087 16.1137 36.3968 -2.29692 -1.46075 173.238 16.3592 87.9056 -65.2743 -14.0096 -1.32147 41.276 9.08139 18.0463 35.2355 -1.21899 5.02007 -0.109035 7.42447 -89.9227 12.0251 -0.180256 0.173898 0.35415 -0.172404 0.181663 -22.1811 -0.224179 0.111693 -2.16843 -0.224186 0.111689 103.456 -45.8945 -80.0423 33.4091 -3.02539 -0.55028 -1.52809 -17.7527 -13.1409 -6.96818 -0.373847 1.14852 -81.0927 -47.0191 91.7546 -30.3306 9.18118 -14.532 9.30495 30.1559 -12.5721 -1.98313 -0.0757232 -0.0157174 3.43867 1.92465 -0.789651 -10.087 1.74596 4.9719 
-81.2816 94.8113 69.876 102.604 53.1507 81.904 -176.441 1.91835 89.0387 -27.5871 21.8252 4.09314 67.7743 5.90966 14.8015 37.1832 -2.56791 -0.939108 171.712 22.095 89.3902 -53.6417 -9.82099 1.01078 53.0947 4.71164 16.3113 39.3688 -1.54197 1.1995 -0.493138 7.46884 -90.1306 11.9355 -1.04201 -0.147952 0.264946 -1.0475 -0.101951 -22.2731 -0.949368 -0.454313 -2.26046 -0.949355 -0.454305 103.452 -46.3691 -80.0637 33.8316 -1.54022 3.24796 -2.0066 -17.5474 -13.2984 -6.6885 -0.335416 0.699231 -80.7985 -46.7158 92.2 -27.3613 12.0375 -21.7396 9.9635 25.7941 -16.6917 0.206113 -0.00365243 -0.546683 4.03066 2.31546 -0.578408 -10.5395 2.06923 5.14447 
-75.6717 95.2187 64.4152 101.383 55.7253 82.0655 -175.845 -3.63528 87.8939 -24.0611 22.806 4.34845 67.5776 6.08486 13.7416 39.7383 -3.38804 -0.183873 173.715 19.79 87.4558 -22.7583 -2.77767 1.74928 51.7603 5.12555 17.9783 41.4062 -1.80953 -0.13129 -0.658152 7.44295 -90.1195 11.9883 -1.36492 -0.0904607 0.318129 -1.36755 -0.030297 -22.2222 -1.2746 -0.496549 -2.20959 -1.2746 -0.496554 103.658 -46.8489 -79.7425 34.4734 0.186376 5.15119 -1.87955 -17.3611 -11.0756 -5.99528 -0.271127 0.156326 -80.6695 -45.5414 92.337 -25.7448 13.386 -27.1265 12.534 22.6945 -23.4715 -0.840255 -0.0603544 -2.21505 4.77024 1.92831 -1.50912 -9.68069 1.87235 5.51268 
-69.496 95.2531 58.51 101.121 59.05 80.3948 -176.02 -8.66545 89.2254 -22.7028 25.4114 5.43495 64.8688 4.67832 10.8102 45.1041 -4.95434 1.92942 176.486 17.9285 84.6974 -5.57184 3.41526 -0.791159 53.5032 5.95293 20.6939 43.4121 -2.15273 -2.63377 -0.866083 7.31466 -90.0345 12.2464 -1.73764 0.125373 0.576602 -1.73043 0.201741 -21.9675 -1.69498 -0.402815 -1.95484 -1.69495 -0.402809 104.05 -47.1146 -79.1172 34.9826 1.61459 7.14053 -2.31443 -17.3451 -10.9434 -3.86681 -0.219396 1.71497 -80.6878 -45.6884 92.3168 -24.8467 13.7725 -29 14.0349 19.4881 -28.3613 3.31387 0.0133167 -2.36782 4.38616 1.41752 -0.844289 -9.66499 1.29238 4.71297 
-61.7455 94.4331 51.4409 100.999 58.056 80.8077 -176.942 -11.0718 90.8266 -29.3919 26.4424 7.31253 58.6755 1.23639 5.89242 55.3952 -7.55379 4.71427 175.786 18.3131 85.935 -13.0486 -0.923302 0.241517 50.4402 6.77663 15.7 37.1492 -1.12704 -2.08887 -0.766306 7.14377 -90.2612 12.585 -1.64666 -0.329863 0.915021 -1.65958 -0.257061 -21.6268 -1.4714 -0.809602 -1.61414 -1.47139 -0.809604 103.513 -46.5147 -79.9685 34.9822 1.89487 7.79365 -2.1231 -18.9081 -10.0634 -5.45273 -0.339099 2.28242 -80.3658 -47.769 92.9343 -24.6826 13.2686 -24.4992 15.8137 19.312 -31.5207 5.22066 0.0501267 -2.2506 4.19141 2.26383 1.68052 -10.3759 1.68353 4.20079 
-53.7686 93.9086 44.2816 100.617 57.104 83.6722 -178.205 -5.7437 95.2747 -42.6834 15.796 6.43103 43.2312 -4.02282 -4.31582 58.3846 -9.71995 -3.45561 175.216 19.166 89.3301 -25.9893 -6.47191 1.86986 54.2992 6.71832 9.29561 31.2206 -0.358711 0.128557 -0.652103 6.85678 -90.7441 13.1511 -1.65262 -1.28514 1.48071 -1.70757 -1.21117 -21.0544 -1.19003 -1.72235 -1.04174 -1.19004 -1.72237 103.65 -46.1654 -79.7329 34.1806 1.57963 6.84932 -1.51406 -18.3895 -10.61 -11.5228 -0.982712 4.969 -81.2799 -49.2803 91.6069 -26.6444 12.2294 -16.3745 14.2289 20.5659 -27.9342 2.28052 0.00475809 -2.05099 2.93737 3.02458 2.50691 -12.1412 2.09034 6.36897 
-46.8195 94.0611 38.3076 102.045 56.5755 83.4503 179.727 5.4661 93.8357 -60.5998 9.65959 4.92696 45.2025 -2.84772 4.78673 50.4746 -6.98627 -3.72639 175.199 15.1522 91.543 -32.4772 -4.87938 2.09387 62.8635 3.79712 9.65291 28.8882 -0.0466501 0.260891 -0.50321 6.91456 -90.9882 13.0283 -1.47339 -1.79391 1.35706 -1.55092 -1.72735 -21.171 -0.866295 -2.15365 -1.15838 -0.866288 -2.15366 103.86 -45.8149 -79.3771 32.8699 0.614519 2.73123 -1.18732 -14.251 -12.1178 -13.6993 -1.20066 5.11328 -82.0024 -49.703 90.5336 -29.4299 10.1318 -13.102 10.6121 25.8718 -17.3438 -0.805493 -0.0566222 -1.48591 3.21141 2.44799 2.12919 -13.7547 1.41868 7.14053 
-40.3216 95.0677 32.5233 101.524 53.4998 81.6459 -179.571 14.5715 89.0635 -58.9296 9.29039 2.90618 54.9912 1.15415 7.43845 49.4969 -6.27263 1.05518 175.602 9.04968 90.6137 -31.7009 -5.02065 0.588287 67.335 2.20787 10.7575 29.4561 -0.257082 1.47707 0.00220098 6.9929 -90.6801 12.8865 -0.321687 -1.32267 1.2149 -0.379573 -1.30725 -21.3146 0.0906698 -1.35821 -1.302 0.0906736 -1.3582 103.863 -45.7526 -79.3694 31.8093 -1.45103 0.0473559 -1.56222 -10.927 -17.7771 -14.9393 -1.03049 2.90588 -82.3377 -49.3271 89.9928 -29.9011 9.7297 -10.1292 8.48032 31.3241 -12.3714 -5.83915 -0.196168 -0.88267 2.52033 1.13629 1.8292 -13.6826 0.304213 5.87875 
-34.4873 95.9212 27.1322 100.152 49.7142 82.0082 -178.179 17.0625 86.7308 -37.413 7.98869 1.62335 57.5685 2.15502 7.44098 53.1311 -7.09063 3.53064 175.892 2.63496 90.4082 -27.9748 -4.15913 -0.472547 68.6373 1.93036 13.935 29.525 -0.270173 1.49947 0.430164 7.08495 -90.5438 12.7058 0.594533 -1.15699 1.03443 0.54303 -1.18204 -21.4989 0.91477 -0.924846 -1.4863 0.914759 -0.924856 103.625 -45.0121 -79.7373 31.0668 -2.6482 -2.63354 -3.72659 -11.3487 -25.4809 -15.0516 -0.92888 2.02017 -82.3179 -50.6002 90.1259 -29.0519 8.71624 -4.07419 9.22136 29.8272 -14.2305 -4.21444 -0.154112 -0.416749 2.80179 1.1312 2.31987 -13.8531 0.254038 5.31126 
-29.0197 95.9887 21.3809 97.4084 46.7256 86.1696 -176.939 15.0017 87.9452 -7.03931 6.94932 1.32009 54.5707 0.740647 5.82006 50.6038 -6.19275 5.69229 175.79 -2.16967 91.7379 -24.4208 -4.31435 -0.182507 66.9923 2.30561 17.7422 32.5968 -0.727731 2.18585 0.701662 7.05611 -90.6951 12.7671 1.06104 -1.5158 1.09566 0.993316 -1.56102 -21.4386 1.46753 -1.12688 -1.42596 1.46753 -1.12687 103.076 -43.8385 -80.6244 31.3253 -3.80361 -5.36077 -5.07444 -11.5464 -30.5983 -16.8384 -0.926982 1.21602 -82.6208 -51.5004 89.7456 -29.841 6.29934 0.371553 9.14783 25.8994 -14.1258 -2.65106 -0.0966418 -1.13118 3.3362 1.69583 2.55566 -13.9779 0.749882 5.37385 
